<?xml version="1.0" encoding="UTF-8" standalone="no"?>
<svg
   width="265"
   height="265"
   fill-rule="evenodd"
   version="1.1"
   id="svg2"
   sodipodi:docname="prohibition.svg"
   inkscape:version="1.3 (0e150ed6c4, 2023-07-21)"
   xmlns:inkscape="http://www.inkscape.org/namespaces/inkscape"
   xmlns:sodipodi="http://sodipodi.sourceforge.net/DTD/sodipodi-0.dtd"
   xmlns="http://www.w3.org/2000/svg"
   xmlns:svg="http://www.w3.org/2000/svg">
  <defs
     id="defs2" />
  <sodipodi:namedview
     id="namedview2"
     pagecolor="#ffffff"
     bordercolor="#000000"
     borderopacity="0.25"
     inkscape:showpageshadow="2"
     inkscape:pageopacity="0.0"
     inkscape:pagecheckerboard="0"
     inkscape:deskcolor="#d1d1d1"
     inkscape:zoom="2.1906969"
     inkscape:cx="113.66246"
     inkscape:cy="153.14762"
     inkscape:window-width="1920"
     inkscape:window-height="1017"
     inkscape:window-x="-8"
     inkscape:window-y="-8"
     inkscape:window-maximized="1"
     inkscape:current-layer="svg2"
     showgrid="true">
    <inkscape:grid
       id="grid2"
       units="px"
       originx="0"
       originy="0"
       spacingx="1"
       spacingy="1"
       empcolor="#0099e5"
       empopacity="0.30196078"
       color="#0099e5"
       opacity="0.14901961"
       empspacing="5"
       dotted="false"
       gridanglex="30"
       gridanglez="30"
       visible="true" />
  </sodipodi:namedview>
  <path
     d="m 230.37889,132.5 c 0,-54.05717 -43.82172,-97.878887 -97.87889,-97.878887 A 97.463774,97.463774 0 0 0 70.394811,56.846774 L 208.48791,194.18915 C 222.17277,177.35442 230.37889,155.88687 230.37889,132.5 Z M 56.512094,70.810849 C 42.828151,87.646509 34.621113,109.11313 34.621113,132.5 c 0,54.05717 43.821717,97.87889 97.878887,97.87889 23.57825,0 45.20851,-8.33832 62.10519,-22.22566 z M 255,132.5 C 255,64.844868 200.15513,10 132.5,10 64.844868,10 10,64.844868 10,132.5 10,200.15513 64.844868,255 132.5,255 200.15513,255 255,200.15513 255,132.5"
     fill="#b71f2e"
     id="path2"
     style="stroke-width:8;stroke:#ffffff;stroke-opacity:1;stroke-dasharray:none;paint-order:stroke fill markers" />
</svg>
