<?xml version="1.0" encoding="UTF-8" standalone="no"?>
<svg id="banner-halloween-svg" viewBox="0 40 1558 300" version="1.1" sodipodi:docname="banner_house2.svg" inkscape:version="1.3-dev (8d38b1141, 2022-12-11)" xmlns:inkscape="http://www.inkscape.org/namespaces/inkscape" xmlns:sodipodi="http://sodipodi.sourceforge.net/DTD/sodipodi-0.dtd" xmlns:xlink="http://www.w3.org/1999/xlink" xmlns="http://www.w3.org/2000/svg" xmlns:svg="http://www.w3.org/2000/svg">
  <sodipodi:namedview id="namedview1" pagecolor="#ffffff" bordercolor="#000000" borderopacity="0.25" inkscape:showpageshadow="2" inkscape:pageopacity="0.0" inkscape:pagecheckerboard="0" inkscape:deskcolor="#d1d1d1" showgrid="false" inkscape:current-layer="layer1" />
  <g id="banner-halloween-sky">
    <rect width="1558" height="379.12619" id="banner-halloween-skybox" fill="url(#banner-halloween-skybox_1_)" />
  </g>
  <g id="banner-halloween-scene" transform="matrix(1,0,0,1.0023048,427.09249,-121.25261)">
    <g id="banner-halloween-text" transform="translate(-27.135979,1.5613725)" style="transform:rotate(-1.5deg) skewX(-3deg)">
      <text id="banner-halloween-title" x="100" y="340" fill="#b31a46" stroke="#ffe19b" stroke-width="2" style="font-size:70px;font-family:Plakat-Fraktur;filter:drop-shadow(3px 3px 0px black)"><tspan id="tspan317">Merry Fistmas!</tspan></text>
    </g>
    <path id="banner-halloween-ground" fill="url(#ground-gradient)" d="m 1033.896,367.2 c -77.89999,5.6 -117.16159,-0.1 -203.16319,1.7 -24.097,0.5 -48.6096,-0.7 -72.4989,0.5 -57.7499,2.9 -118.8235,3.8 -173.0419,10.8 -104.07437,13.4 -154.55357,8.3 -271.09197,3.1 -48.6096,-2.1 -127.1328,-1.3 -175.95013,-2.4 -126.09413,-2.8 -205.24053,9.3 -325.10267,1.8 -74.57626,-4.7 -136.4808,-3.8 -202.74773,-15.7 -12.04853,-2.1 -24.51253,-4.2 -37.392,-6 V 500.1 H 1130.9075 V 364.6 c -33.4451,3 -62.32,0.1 -97.0115,2.6 z" />
    <g id="banner-christmas-trees" transform="matrix(0.8,0,0,0.8,446.72196,-56.154671)" style="filter:drop-shadow(0px 10px 10px rgba(0, 86, 118, 0.2))">
      <path id="banner-tree-4" fill="url(#tree-gradient)" d="m 653.514,567.411 c -9.173,0.507 -18.854,1.525 -27.516,3.304 4.075,-5.086 10.19,-10.17 11.465,-16.271 -6.882,1.526 -14.776,-0.253 -16.817,-7.115 7.898,-3.812 14.269,-10.423 19.62,-17.285 -2.294,-0.254 -4.332,-1.271 -6.626,-1.526 2.294,-4.319 6.881,-8.134 10.447,-12.456 -6.115,-1.526 -10.702,-6.098 -15.034,-10.42 7.136,-2.29 14.525,-4.069 22.166,-3.812 -2.292,-2.797 -2.037,-7.627 -3.82,-10.17 3.312,0.254 7.644,-1.271 11.21,-0.508 4.587,-13.474 14.522,-29.23 24.712,-39.4 -0.254,4.576 0,9.913 0.767,13.981 4.84,-2.29 7.644,-7.119 10.955,-10.931 0.255,2.032 1.275,4.322 1.783,6.354 3.82,-0.761 37.705,-13.727 23.949,2.797 6.878,-4.322 20.638,-29.741 30.573,-26.437 7.898,2.543 5.86,14.235 2.292,18.557 3.568,0.508 6.369,2.797 9.172,3.558 -1.274,0.508 -2.803,0.764 -3.82,1.271 10.444,4.83 23.949,13.218 31.336,21.862 -5.095,0.508 -10.444,0.761 -15.285,2.54 7.645,4.068 18.089,7.118 26.75,7.88 -7.133,0.507 -14.011,3.051 -19.363,7.373 6.881,4.065 16.051,5.844 23.949,7.88 -9.17,2.54 -12.481,8.641 -14.01,16.267 4.328,8.134 12.993,7.626 17.322,14.742 -4.329,5.083 -11.719,5.337 -17.068,8.898 4.329,1.525 8.406,4.065 11.719,7.369 -9.427,5.595 -25.732,13.981 -37.708,13.981 -8.661,0 -9.937,-4.322 -17.58,-5.591 -10.19,-1.782 -15.03,0.254 -24.712,3.048 -21.654,6.354 -25.479,6.612 -45.35,1.018 -7.39,-2.033 -23.694,0.253 -26.752,-3.812" />
      <path id="banner-tree-3" fill="url(#tree-gradient)" d="m 519.755,571.983 c -7.133,1.525 -14.269,0.51 -21.4,0 4.329,-6.609 10.189,-12.199 14.522,-18.808 -2.037,0.508 -5.095,-0.51 -7.135,-0.256 -0.509,-7.877 6.369,-15.25 8.918,-22.623 -5.095,1.271 -10.189,2.543 -15.288,2.29 11.468,-14.235 26.244,-30.249 30.319,-49.06 -6.624,0 -14.011,2.287 -19.872,4.83 8.407,-9.913 24.712,-27.96 27.516,-41.434 -4.332,2.29 -8.915,5.084 -13.759,5.848 1.786,-6.101 3.823,-12.202 8.409,-16.524 -4.077,1.782 -8.409,1.525 -11.976,0.256 8.918,-18.049 24.203,-32.028 36.688,-47.026 -2.803,1.017 -5.857,0.764 -8.66,1.271 8.406,-6.609 18.342,-11.438 25.986,-19.064 -3.566,11.692 26.752,26.437 32.355,36.603 -4.074,-0.507 -8.661,-1.525 -12.738,-2.29 6.369,9.659 12.484,23.133 16.308,34.064 -3.058,-2.032 -7.644,-2.543 -10.956,-3.814 1.783,17.796 13.756,33.046 21.4,48.299 -4.074,0.761 -8.407,1.778 -12.484,2.54 -4.075,11.695 10.447,28.216 14.779,39.654 -4.844,-5.336 -13.505,-6.862 -19.875,-4.322 5.096,13.22 14.269,28.216 21.146,41.179 -8.661,-1.014 -20.38,-1.779 -26.75,3.815 6.879,3.557 11.719,9.658 14.266,17.028 -12.994,2.29 -27.262,6.609 -40.509,5.34 -16.051,-1.525 -30.319,-11.695 -45.861,-16.524" />
      <path id="banner-tree-2" fill="url(#tree-gradient)" d="m 547.781,570.714 c -7.644,-6.609 -2.295,-15 -4.078,-23.387 -1.274,-6.101 -4.841,-13.471 -10.701,-16.521 0.766,-0.257 1.528,-1.526 2.295,-1.779 -2.295,-1.525 -8.919,-3.561 -9.428,-6.354 -0.254,-1.018 0.764,-3.051 0.764,-3.051 -0.764,-3.305 -3.566,-6.612 -6.878,-9.659 1.273,-1.018 2.803,-1.525 4.332,-2.035 -3.313,-4.319 -7.898,-9.149 -9.937,-14.236 3.058,-0.253 6.37,0 9.425,0 -3.566,-6.097 -9.682,-11.945 -15.539,-16.014 4.332,-1.525 9.172,-0.507 13.756,-1.525 -5.096,-5.083 -9.17,-13.471 -11.974,-20.08 3.058,0 6.878,0.254 10.447,0 -3.058,-5.594 -7.644,-11.692 -12.484,-16.014 2.546,-0.253 5.095,0 7.641,0.761 -5.349,-7.115 -10.952,-14.996 -17.834,-21.097 -4.841,-4.575 -9.169,-8.388 -13.501,-13.471 -4.332,-5.086 -10.702,-9.916 -14.522,-14.999 -2.037,-2.541 -2.549,-6.101 -4.332,-9.149 -1.274,-2.29 -4.841,-4.575 -5.861,-6.612 2.804,6.612 7.645,15.253 -2.546,16.778 1.274,13.981 -7.135,23.641 -11.719,34.314 -4.844,11.441 -21.403,34.064 -19.874,44.738 3.058,-3.558 7.39,-6.098 11.976,-6.862 -2.04,11.438 -7.135,23.64 -9.173,34.825 -0.508,2.286 0.764,6.354 0.255,9.405 -1.021,4.83 -6.115,11.692 -8.407,16.267 4.329,-4.068 10.19,-7.115 15.539,-9.405 -4.074,12.456 -10.444,23.387 -15.284,35.078 17.07,1.526 -5.096,28.724 -5.096,38.129 9.17,3.051 18.089,-1.271 27.262,-2.543 15.284,-2.287 29.044,2.036 44.074,2.797 13.76,0.764 22.166,-5.337 34.905,-6.355 9.682,-1.014 18.088,5.337 27.261,0" />
      <g id="g2" inkscape:label="tree-1" transform="translate(48.12603,25.608194)">
        <path id="banner-tree-1" fill="url(#tree-gradient)" d="m -903.592,565.831 c -7.643,-6.61 -2.293,-14.999 -4.076,-23.385 -1.275,-6.101 -4.841,-13.475 -10.7,-16.523 0.764,-0.509 1.529,-1.524 2.293,-1.781 -2.293,-1.522 -8.918,-3.558 -9.427,-6.354 -0.256,-1.015 0.764,-3.048 0.764,-3.048 -0.764,-3.307 -3.312,-6.612 -6.879,-9.658 1.274,-1.018 2.803,-1.526 4.332,-2.036 -3.313,-4.319 -7.898,-9.152 -9.938,-14.235 3.058,-0.253 6.37,0 9.427,0 -3.568,-6.098 -9.681,-11.945 -15.542,-16.014 4.332,-1.526 9.172,-0.508 13.759,-1.526 -5.096,-5.083 -9.172,-13.471 -11.974,-20.079 3.058,0 6.878,0.253 10.445,0 -3.058,-5.594 -7.644,-11.695 -12.484,-16.014 2.547,-0.254 5.095,0 7.644,0.761 -5.351,-7.116 -10.956,-14.997 -17.835,-21.098 -4.841,-4.575 -9.171,-8.387 -13.502,-13.47 -4.332,-5.087 -10.702,-9.917 -14.523,-15 -2.038,-2.54 -2.548,-6.101 -4.331,-9.152 -1.274,-2.286 -4.84,-4.572 -5.859,-6.608 2.802,6.608 7.643,15.252 -2.549,16.778 1.274,13.981 -7.132,23.64 -11.719,34.314 -4.841,11.44 -21.401,34.063 -19.873,44.737 3.058,-3.557 7.389,-6.097 11.975,-6.862 -2.039,11.438 -7.134,23.641 -9.172,34.825 -0.509,2.287 0.764,6.354 0.255,9.405 -1.02,4.83 -6.115,11.692 -8.408,16.269 4.332,-4.069 10.191,-7.117 15.542,-9.406 -4.077,12.455 -10.446,23.387 -15.287,35.079 17.069,1.524 -5.097,28.723 -5.097,38.129 9.173,3.05 18.09,-1.272 27.261,-2.543 15.287,-2.288 29.045,2.034 44.076,2.796 13.759,0.764 22.166,-5.337 34.905,-6.354 9.681,-1.019 18.089,5.335 27.261,0" style="fill:url(#linearGradient11)" />
        <path sodipodi:type="star" style="fill:url(#radialGradient11)" id="path1" inkscape:flatsided="false" sodipodi:sides="5" sodipodi:cx="53.901154" sodipodi:cy="46.200989" sodipodi:r1="26.316719" sodipodi:r2="13.15836" sodipodi:arg1="0.78539816" sodipodi:arg2="1.4137167" inkscape:rounded="0" inkscape:randomized="0" d="M 72.509884,64.809719 55.959574,59.197347 41.953613,69.649357 42.176969,52.174759 27.908437,42.084147 44.596788,36.896623 49.784312,20.208272 59.874924,34.476805 77.349522,34.253448 66.897512,48.25941 Z" transform="matrix(0.76329925,0,0,0.76154404,-1029.7569,345.12885)" inkscape:transform-center-x="0.7768379" inkscape:transform-center-y="-0.77684124" />
        <g inkscape:groupmode="layer" id="layer1" inkscape:label="tree-snow" />
      </g>
    </g>
    <!--<use href="#banner-christmas-trees" x="5" y="5" stroke="rgba(0,0,0,0.5)"/>-->
    <g id="g1211" transform="matrix(0.27486513,0,0,0.27423308,-231.60027,234.95101)">
      <g id="g1101">
        <rect x="343" y="110.248" fill="#6d3a0f" width="108.667" height="23.667" id="rect1083" />
        <path fill="#f1f2f2" d="m 458.5,98.915 c 1.174,-11.742 -39.833,1.948 -61.167,-4.026 C 376,88.915 347,84.915 337,104.915 c -10,20 -2.333,25 8.333,24 10.667,-1 19.667,-18 29.667,-13 10,5 24,-2.333 37,-5.667 13,-3.333 23,1.667 32,5.667 9,4 13,-2 14.5,-17 z" id="path1085" />
        <path fill="#d1d3d4" d="m 345.333,128.915 c 10.667,-1 19.667,-18 29.667,-13 10,5 24,-2.333 37,-5.667 13,-3.333 23,1.667 32,5.667 9,4 13,-2 14.5,-17 -6.5,9 -14.5,17 -17.5,4.516 -3,-12.484 -26,-1.516 -37,0 -11,1.516 -23,7.484 -32,1.484 -9,-6 -16,8 -26.667,10 -10.667,2 -8.333,-10 -8.333,-10 -10,20 -2.333,25 8.333,24 z" id="path1087" />
        <rect x="354" y="133.91499" fill="#b48d4f" width="87" height="28.667" id="rect1089" />
        <rect x="354" y="162.582" fill="#c8a261" width="87" height="28.667" id="rect1091" />
        <rect x="354" y="191.248" fill="#b48d4f" width="87" height="28.667" id="rect1093" />
        <rect x="354" y="219.91499" fill="#c8a261" width="87" height="28.667" id="rect1095" />
        <rect x="354" y="248.582" fill="#b48d4f" width="87" height="28.666" id="rect1097" />
        <rect x="354" y="277.24799" fill="#c8a261" width="87" height="28.667" id="rect1099" />
      </g>
      <rect x="296.20099" y="633.24799" fill="#6e572c" width="507.79901" height="35.667" id="rect1103" />
      <rect x="296.20099" y="597.91498" fill="#876b39" width="507.79901" height="35.667" id="rect1105" />
      <rect x="296.20099" y="562.58197" fill="#6e572c" width="507.79901" height="35.666" id="rect1107" />
      <rect x="296.20099" y="527.24799" fill="#876b39" width="507.79901" height="35.667" id="rect1109" />
      <rect x="296.20099" y="491.91501" fill="#6e572c" width="507.79901" height="35.667" id="rect1111" />
      <rect x="296.20099" y="456.582" fill="#876b39" width="507.79901" height="35.666" id="rect1113" />
      <rect x="296.20099" y="421.24799" fill="#6e572c" width="507.79901" height="35.667" id="rect1115" />
      <rect x="296.20099" y="385.91501" fill="#876b39" width="507.79901" height="35.667" id="rect1117" />
      <polygon fill="#6e572c" points="551.785,120.248 804,386.248 296.201,386.248 310,355.785 " id="polygon1119" />
      <rect x="391" y="449.41501" fill="#9edae0" width="144" height="140.5" id="rect1121" />
      <rect x="458.5" y="444.41501" fill="#a07e46" width="8" height="149" id="rect1123" />
      <rect x="388" y="514.91498" fill="#a07e46" width="149" height="8" id="rect1125" />
      <circle fill="#b48d4f" cx="332" cy="651.91498" r="22" id="circle1127" />
      <circle fill="#c8a261" cx="332" cy="651.91498" r="13.333" id="circle1129" />
      <circle fill="#b48d4f" cx="332" cy="611.24799" r="22" id="circle1131" />
      <circle fill="#c8a261" cx="332" cy="611.24799" r="13.333" id="circle1133" />
      <circle fill="#b48d4f" cx="332" cy="570.58197" r="22" id="circle1135" />
      <circle fill="#c8a261" cx="332" cy="570.58197" r="13.333" id="circle1137" />
      <circle fill="#b48d4f" cx="332" cy="529.91498" r="22" id="circle1139" />
      <circle fill="#c8a261" cx="332" cy="529.91498" r="13.333" id="circle1141" />
      <circle fill="#b48d4f" cx="332" cy="489.24799" r="22" id="circle1143" />
      <circle fill="#c8a261" cx="332" cy="489.24799" r="13.333" id="circle1145" />
      <circle fill="#b48d4f" cx="332" cy="448.582" r="22" id="circle1147" />
      <circle fill="#c8a261" cx="332" cy="448.582" r="13.333" id="circle1149" />
      <circle fill="#b48d4f" cx="332" cy="407.91501" r="22" id="circle1151" />
      <circle fill="#c8a261" cx="332" cy="407.91501" r="13.333" id="circle1153" />
      <circle fill="#b48d4f" cx="764" cy="651.91498" r="22" id="circle1155" />
      <circle fill="#c8a261" cx="764" cy="651.91498" r="13.333" id="circle1157" />
      <circle fill="#b48d4f" cx="764" cy="611.24799" r="22" id="circle1159" />
      <circle fill="#c8a261" cx="764" cy="611.24799" r="13.333" id="circle1161" />
      <circle fill="#b48d4f" cx="764" cy="570.58197" r="22" id="circle1163" />
      <circle fill="#c8a261" cx="764" cy="570.58197" r="13.333" id="circle1165" />
      <circle fill="#b48d4f" cx="764" cy="529.91498" r="22" id="circle1167" />
      <circle fill="#c8a261" cx="764" cy="529.91498" r="13.333" id="circle1169" />
      <circle fill="#b48d4f" cx="764" cy="489.24799" r="22" id="circle1171" />
      <circle fill="#c8a261" cx="764" cy="489.24799" r="13.333" id="circle1173" />
      <circle fill="#b48d4f" cx="764" cy="448.582" r="22" id="circle1175" />
      <circle fill="#c8a261" cx="764" cy="448.582" r="13.333" id="circle1177" />
      <circle fill="#b48d4f" cx="764" cy="407.91501" r="22" id="circle1179" />
      <circle fill="#c8a261" cx="764" cy="407.91501" r="13.333" id="circle1181" />
      <rect x="386" y="442.582" fill="#c8a261" width="11.333" height="150.666" id="rect1183" />
      <rect x="528.5" y="442.582" fill="#c8a261" width="11.333" height="150.666" id="rect1185" />
      <rect x="381" y="439.582" fill="#b48d4f" width="164" height="11.333" id="rect1187" />
      <rect x="381" y="586.91498" fill="#b48d4f" width="164" height="11.333" id="rect1189" />
      <rect x="689.33301" y="450.91501" fill="#b48d4f" width="36.334" height="218" id="rect1191" />
      <rect x="653" y="450.91501" fill="#c8a261" width="36.333" height="218" id="rect1193" />
      <rect x="616.66699" y="450.91501" fill="#b48d4f" width="36.333" height="218" id="rect1195" />
      <rect x="580.33301" y="450.91501" fill="#c8a261" width="36.334" height="218" id="rect1197" />
      <circle fill="#6d3a0f" cx="595.66699" cy="561.58197" r="10.667" id="circle1199" />
      <polygon fill="#6d3a0f" points="819,414.915 556,132.915 272.484,412.731 278.535,381.631 553,110.248 831.086,385.915 " id="polygon1201" />
      <path fill="#f1f2f2" d="m 552,94.915 c -16.708,-1.354 -71,51 -88,81 -17,30 -87,112 -116,128 -29,16 -49,42 -69,66 -20,24 -26,42 -16,51 10,9 20,-3 22,-20 2,-17 2,-22 25,-34 23,-12 70,-54 88,-86 18,-32 119,-121 130,-139 11,-18 15,-15 26,-18 11,-3 102,91 118,117 16,26 79,84 94,97 15,13 24,23 31,38 7,15 19,22 22,39 3,17 21,-8 19,-24 -2,-16 -26,-35 -45,-51 -19,-16 -106,-99 -126,-131 -20,-32 -78,-111 -115,-114 z" id="path1203" />
      <path fill="#d1d3d4" d="m 822.333,402.248 c -0.666,-12 -7.333,-6 -12,-27.333 -4.666,-21.333 -44.666,-47.333 -68,-69.333 -23.333,-22 -60.666,-63.333 -73.333,-78.667 -12.667,-15.333 -44.667,-50 -59.333,-71.333 -14.667,-21.333 -42,-45.333 -56.667,-45.333 -14.667,0 -33.333,18.667 -42.667,32 -9.333,13.333 -50.667,56 -66.667,76.667 -16,20.667 -52,56 -60.667,71.333 -8.667,15.333 -57.333,57.333 -79.333,69.333 -22,12 -29.333,22 -30,45.333 -0.355,12.428 -5.816,15.587 -10.843,15.827 0.061,0.057 0.115,0.117 0.177,0.173 10,9 20,-3 22,-20 2,-17 2,-22 25,-34 23,-12 70,-54 88,-86 18,-32 119,-121 130,-139 11,-18 15,-15 26,-18 11,-3 102,91 118,117 16,26 79,84 94,97 15,13 24,23 31,38 7,15 19,22 22,39 1.577,8.939 7.302,6.263 12.086,-0.608 -5.895,3.682 -8.148,-1.167 -8.753,-12.059 z" id="path1205" />
      <circle fill="#b48d4f" cx="557.66699" cy="288.24799" r="42" id="circle1207" />
      <circle fill="#9edae0" cx="557.66699" cy="288.24799" r="31.333" id="circle1209" />
    </g>
  </g>
  <g id="banner-halloween-stars" fill="white" style="opacity:0.8" transform="translate(-68.499999,25.761047)">
    <g class="star1 star" id="g415">
      <circle cx="354.34659" cy="51.486233" id="circle375" />
      <circle cx="686.33435" cy="100.34389" id="circle377" />
      <circle cx="1428.2604" cy="121.01141" id="circle379" />
      <circle cx="142.41147" cy="57.083103" id="circle381" />
      <circle cx="624.15045" cy="52.292145" id="circle383" />
      <circle cx="261.05768" cy="197.4662" id="circle385" />
      <circle cx="1586.7877" cy="232.13432" id="circle387" />
      <circle cx="1457.4095" cy="193.31587" id="circle389" />
      <circle cx="193.29951" cy="26.420403" id="circle391" />
      <circle cx="1025.8184" cy="177.29558" id="circle393" />
      <circle cx="1205.6655" cy="107.11586" id="circle395" />
      <circle cx="988.62946" cy="115.36874" id="circle397" />
      <circle cx="1418.1691" cy="174.45583" id="circle399" />
      <circle cx="617.49738" cy="57.193687" id="circle401" />
      <circle cx="299.98047" cy="121.33453" id="circle403" />
      <circle cx="90.674393" cy="-0.54514796" id="circle405" />
      <circle cx="1075.5156" cy="36.469925" id="circle407" />
      <circle cx="1455.9106" cy="180.05734" id="circle409" />
      <circle cx="646.97412" cy="132.32523" id="circle411" />
      <circle cx="704.60657" cy="18.466848" id="circle413" />
    </g>
    <g class="star2 star" id="g459">
      <circle cx="1406.1763" cy="-5.5104017" id="circle417" />
      <circle cx="536.49463" cy="103.55247" id="circle419" />
      <circle cx="351.08881" cy="143.94203" id="circle421" />
      <circle cx="1279.1542" cy="18.840036" id="circle423" />
      <circle cx="221.29961" cy="28.242449" id="circle425" />
      <circle cx="1603.348" cy="115.4075" id="circle427" />
      <circle cx="921.06372" cy="107.46529" id="circle429" />
      <circle cx="137.43065" cy="111.68105" id="circle431" />
      <circle cx="505.65485" cy="-6.3819265" id="circle433" />
      <circle cx="1577.0615" cy="171.6333" id="circle435" />
      <circle cx="906.78802" cy="-1.5375607" id="circle437" />
      <circle cx="860.159" cy="72.191864" id="circle439" />
      <circle cx="212.81689" cy="112.77587" id="circle441" />
      <circle cx="1451.5607" cy="91.880829" id="circle443" />
      <circle cx="1153.7001" cy="79.335007" id="circle445" />
      <circle cx="1235.9001" cy="93.177391" id="circle447" />
      <circle cx="125.44918" cy="203.72043" id="circle449" />
      <circle cx="1467.8811" cy="141.55785" id="circle451" />
      <circle cx="87.268814" cy="115.13907" id="circle453" />
      <circle cx="420.64523" cy="9.8289289" id="circle455" />
      <circle cx="1078.9646" cy="156.93616" id="circle457" />
    </g>
    <g class="star3 star" id="g501">
      <circle cx="861.69922" cy="59.167252" id="circle461" />
      <circle cx="92.081718" cy="186.95992" id="circle463" />
      <circle cx="492.38992" cy="92.957916" id="circle465" />
      <circle cx="782.71057" cy="55.074757" id="circle467" />
      <circle cx="1569.3516" cy="207.68919" id="circle469" />
      <circle cx="1553.7762" cy="173.45573" id="circle471" />
      <circle cx="366.2016" cy="98.177361" id="circle473" />
      <circle cx="158.98877" cy="182.29086" id="circle475" />
      <circle cx="1566.6627" cy="-2.7730622" id="circle477" />
      <circle cx="1032.2488" cy="99.917984" id="circle479" />
      <circle cx="1442.6716" cy="16.022043" id="circle481" />
      <circle cx="849.01971" cy="232.44159" id="circle483" />
      <circle cx="572.78674" cy="28.079025" id="circle485" />
      <circle cx="1265.6924" cy="208.07133" id="circle487" />
      <circle cx="1321.8163" cy="167.11555" id="circle489" />
      <circle cx="1203.9926" cy="204.14101" id="circle491" />
      <circle cx="1074.4159" cy="7.6153278" id="circle493" />
      <circle cx="1390.5989" cy="93.045151" id="circle495" />
      <circle cx="1490.332" cy="123.14182" id="circle497" />
      <circle cx="1130.7302" cy="150.13852" id="circle499" />
    </g>
    <g class="star4 star" id="g543">
      <circle cx="1235.1261" cy="183.63806" id="circle503" />
      <circle cx="941.27423" cy="28.98748" id="circle505" />
      <circle cx="1565.119" cy="39.94997" id="circle507" />
      <circle cx="1320.7312" cy="197.81389" id="circle509" />
      <circle cx="1330.1912" cy="94.380714" id="circle511" />
      <circle cx="1501.6204" cy="193.72606" id="circle513" />
      <circle cx="100.52748" cy="27.732065" id="circle515" />
      <circle cx="1326.5785" cy="153.80927" id="circle517" />
      <circle cx="840.51929" cy="5.7146263" id="circle519" />
      <circle cx="1507.1639" cy="88.637108" id="circle521" />
      <circle cx="1252.4867" cy="189.86913" id="circle523" />
      <circle cx="433.59921" cy="12.135095" id="circle525" />
      <circle cx="995.14679" cy="86.594627" id="circle527" />
      <circle cx="1352.5358" cy="54.43977" id="circle529" />
      <circle cx="581.47766" cy="97.300217" id="circle531" />
      <circle cx="622.31262" cy="202.93999" id="circle533" />
      <circle cx="988.44" cy="136.42937" id="circle535" />
      <circle cx="224.8391" cy="136.87054" id="circle537" />
      <circle cx="190.67062" cy="23.389349" id="circle539" />
      <circle cx="378.93933" cy="215.09964" id="circle541" />
    </g>
    <g class="star5 star" id="g583">
      <circle cx="415.39145" cy="91.883652" id="circle545" />
      <circle cx="1611.5449" cy="42.999901" id="circle547" />
      <circle cx="1584.6263" cy="126.31186" id="circle549" />
      <circle cx="794.80231" cy="62.717503" id="circle551" />
      <circle cx="1451.3389" cy="16.653343" id="circle553" />
      <circle cx="554.16071" cy="71.499649" id="circle555" />
      <circle cx="314.88879" cy="183.24821" id="circle557" />
      <circle cx="645.84845" cy="-4.3557439" id="circle559" />
      <circle cx="1192.1021" cy="58.766937" id="circle561" />
      <circle cx="1371.4421" cy="2.2274418" id="circle563" />
      <circle cx="618.45569" cy="167.10979" id="circle565" />
      <circle cx="254.45935" cy="81.400383" id="circle567" />
      <circle cx="1514.1248" cy="198.7796" id="circle569" />
      <circle cx="1352.1172" cy="150.42014" id="circle571" />
      <circle cx="1365.3644" cy="28.673313" id="circle573" />
      <circle cx="912.87531" cy="98.27787" id="circle575" />
      <circle cx="350.54874" cy="81.523178" id="circle577" />
      <circle cx="441.39749" cy="30.191652" id="circle579" />
      <circle cx="169.44328" cy="10.935395" id="circle581" />
    </g>
    <defs id="defs587">
      <style id="style585">
				.star1 circle {r: 0.5;}
				.star2 circle {r: 0.75;}
				.star3 circle {r: 1.0;}
				.star4 circle {r: 1.2;}
				.star5 circle {r: 1.5;}
			</style>
    </defs>
  </g>
  <defs id="defs616">
    <linearGradient inkscape:collect="always" id="linearGradient2">
      <stop style="stop-color:#e6f055" offset="0" id="stop1" />
      <stop style="stop-color:#f4f8b1" offset="1" id="stop2" />
    </linearGradient>
    <!--gradients-->
    <linearGradient id="house-fill-gradient" gradientUnits="userSpaceOnUse" x1="149.4008" y1="260.50101" x2="149.4008" y2="546.78699">
      <stop offset="0" style="stop-color:#100000" id="stop590" />
      <stop offset="1" style="stop-color:#1823bd" id="house-fill-gradient-stop" />
    </linearGradient>
    <radialGradient id="banner-halloween-house-window-gradient">
      <stop offset="0" style="stop-color:#ffffff" id="stop594" />
      <stop offset="1" style="stop-color:#ffe19b" id="stop596" />
    </radialGradient>
    <linearGradient id="ground-gradient" gradientUnits="userSpaceOnUse" x1="-52.2058" y1="310.2124" x2="-52.2058" y2="1011.9044" gradientTransform="matrix(0.816 0 0 -0.3937 -78.4925 761.4772)">
      <stop offset="0.5" style="stop-color:#a7efff" id="stop599" />
      <stop offset="1" style="stop-color:#FFFFFF" id="stop601" />
    </linearGradient>
    <linearGradient id="tree-gradient" gradientUnits="userSpaceOnUse" x1="-1095.1936" y1="578.2625" x2="-1095.1936" y2="842.7986" gradientTransform="matrix(0.8121 0 0 -0.8121 -80.1719 1054.2906)">
      <stop offset="0" style="stop-color:#006A75" id="stop604" />
      <stop offset="0.5834" style="stop-color:#006A55" id="stop606" />
      <stop offset="1" style="stop-color:#005E48" id="stop608" />
    </linearGradient>
    <linearGradient id="banner-halloween-skybox_1_" gradientUnits="userSpaceOnUse" x1="306.0005" y1="578.1084" x2="306.0005" y2="110.8926">
      <stop offset="0.3978" style="stop-color:#defcff" id="stop611" />
      <stop offset="1" style="stop-color:#2c93ff" id="stop613" />
    </linearGradient>
    <!--snow-->
    <radialGradient inkscape:collect="always" xlink:href="#linearGradient2" id="radialGradient2" cx="52.628979" cy="44.928815" fx="52.628979" fy="44.928815" r="24.720542" gradientUnits="userSpaceOnUse" />
    <radialGradient inkscape:collect="always" xlink:href="#linearGradient2" id="radialGradient3" gradientUnits="userSpaceOnUse" cx="52.628979" cy="44.928815" fx="52.628979" fy="44.928815" r="24.720542" />
    <radialGradient inkscape:collect="always" xlink:href="#linearGradient2" id="radialGradient4" gradientUnits="userSpaceOnUse" cx="52.628979" cy="44.928815" fx="52.628979" fy="44.928815" r="24.720542" />
    <radialGradient inkscape:collect="always" xlink:href="#linearGradient2" id="radialGradient5" gradientUnits="userSpaceOnUse" cx="52.628979" cy="44.928815" fx="52.628979" fy="44.928815" r="24.720542" />
    <linearGradient inkscape:collect="always" xlink:href="#tree-gradient" id="linearGradient11" gradientUnits="userSpaceOnUse" gradientTransform="matrix(0.8121,0,0,-0.8121,-80.1719,1054.2906)" x1="-1095.1936" y1="578.2625" x2="-1095.1936" y2="842.7986" />
    <radialGradient inkscape:collect="always" xlink:href="#linearGradient2" id="radialGradient11" gradientUnits="userSpaceOnUse" cx="52.628979" cy="44.928815" fx="52.628979" fy="44.928815" r="24.720542" />
  </defs>
</svg>
